<svg width="15" height="17" viewBox="0 0 15 17" fill="none" xmlns="http://www.w3.org/2000/svg">
<g id="Icon">
<path id="Vector" d="M12.181 9.875C12.4548 10.0298 12.6319 10.2604 12.7122 10.567C12.7926 10.8735 12.7554 11.1637 12.6006 11.4375L12.0292 12.4196C11.8744 12.6935 11.6438 12.8705 11.3372 12.9509C11.0307 13.0313 10.7405 12.9941 10.4667 12.8393L8.09171 11.4732V14.2143C8.09171 14.5238 7.97861 14.7917 7.75242 15.0179C7.52623 15.2441 7.25837 15.3571 6.94885 15.3571H5.80599C5.49647 15.3571 5.22861 15.2441 5.00242 15.0179C4.77623 14.7917 4.66314 14.5238 4.66314 14.2143V11.4732L2.28814 12.8393C2.01433 12.9941 1.72415 13.0313 1.4176 12.9509C1.11105 12.8705 0.880397 12.6935 0.725635 12.4196L0.154207 11.4375C-0.000555209 11.1637 -0.0377576 10.8735 0.0425996 10.567C0.122957 10.2604 0.30004 10.0298 0.57385 9.875L2.94885 8.5L0.57385 7.125C0.30004 6.97024 0.122957 6.73959 0.0425996 6.43304C-0.0377576 6.12649 -0.000555209 5.83631 0.154207 5.5625L0.725635 4.58036C0.880397 4.30655 1.11105 4.12947 1.4176 4.04911C1.72415 3.96875 2.01433 4.00596 2.28814 4.16072L4.66314 5.52679V2.78572C4.66314 2.47619 4.77623 2.20834 5.00242 1.98215C5.22861 1.75596 5.49647 1.64286 5.80599 1.64286H6.94885C7.25837 1.64286 7.52623 1.75596 7.75242 1.98215C7.97861 2.20834 8.09171 2.47619 8.09171 2.78572V5.52679L10.4667 4.16072C10.7405 4.00596 11.0307 3.96875 11.3372 4.04911C11.6438 4.12947 11.8744 4.30655 12.0292 4.58036L12.6006 5.5625C12.7554 5.83631 12.7926 6.12649 12.7122 6.43304C12.6319 6.73959 12.4548 6.97024 12.181 7.125L9.80599 8.5L12.181 9.875Z" fill="black"/>
</g>
</svg>
