<svg width="15" height="16" viewBox="0 0 15 16" fill="none" xmlns="http://www.w3.org/2000/svg">
<g id="Icon" clip-path="url(#clip0_2_30)">
<path id="Vector" d="M9.41609 9.61608C9.41609 9.61608 9.52769 9.50447 9.75091 9.28125C9.97412 9.05804 10.0857 8.63096 10.0857 8C10.0857 7.36905 9.86251 6.83036 9.41609 6.38393C8.96966 5.9375 8.43097 5.71429 7.80001 5.71429C7.16906 5.71429 6.63037 5.9375 6.18394 6.38393C5.73751 6.83036 5.5143 7.36905 5.5143 8C5.5143 8.63096 5.73751 9.16965 6.18394 9.61608C6.63037 10.0625 7.16906 10.2857 7.80001 10.2857C8.43097 10.2857 8.96966 10.0625 9.41609 9.61608ZM10.2911 5.50893C10.2911 5.50893 10.4622 5.68006 10.8045 6.02233C11.1467 6.36459 11.3179 7.02381 11.3179 8C11.3179 8.97619 10.9756 9.80655 10.2911 10.4911C9.60656 11.1756 8.7762 11.5179 7.80001 11.5179C6.82382 11.5179 5.99347 11.1756 5.30894 10.4911C4.62442 9.80655 4.28216 8.97619 4.28216 8C4.28216 7.02381 4.62442 6.19346 5.30894 5.50893C5.99347 4.82441 6.82382 4.48215 7.80001 4.48215C8.7762 4.48215 9.60656 4.82441 10.2911 5.50893ZM12.0411 3.75893C12.0411 3.75893 12.0813 3.79911 12.1616 3.87947C12.242 3.95983 12.2822 4.1131 12.2822 4.33929C12.2822 4.56548 12.2018 4.75893 12.0411 4.91965C11.8804 5.08036 11.6869 5.16072 11.4607 5.16072C11.2345 5.16072 11.0411 5.08036 10.8804 4.91965C10.7197 4.75893 10.6393 4.56548 10.6393 4.33929C10.6393 4.1131 10.7197 3.91965 10.8804 3.75893C11.0411 3.59822 11.2345 3.51786 11.4607 3.51786C11.6869 3.51786 11.8804 3.59822 12.0411 3.75893ZM8.48305 2.37054C8.48305 2.37054 8.37963 2.37128 8.17278 2.37277C7.96594 2.37426 7.84168 2.375 7.80001 2.375C7.75835 2.375 7.53067 2.37352 7.11698 2.37054C6.70329 2.36756 6.3893 2.36756 6.17501 2.37054C5.96073 2.37352 5.67353 2.38244 5.31341 2.39733C4.95329 2.41221 4.64674 2.44197 4.39376 2.48661C4.14079 2.53125 3.92799 2.58631 3.75537 2.65179C3.45775 2.77084 3.19585 2.94346 2.96966 3.16965C2.74347 3.39584 2.57085 3.65774 2.4518 3.95536C2.38632 4.12798 2.33126 4.34078 2.28662 4.59375C2.24198 4.84673 2.21222 5.15328 2.19734 5.5134C2.18245 5.87352 2.17353 6.16072 2.17055 6.375C2.16757 6.58929 2.16757 6.90328 2.17055 7.31697C2.17353 7.73066 2.17501 7.95834 2.17501 8C2.17501 8.04167 2.17353 8.26935 2.17055 8.68304C2.16757 9.09673 2.16757 9.41072 2.17055 9.625C2.17353 9.83929 2.18245 10.1265 2.19734 10.4866C2.21222 10.8467 2.24198 11.1533 2.28662 11.4063C2.33126 11.6592 2.38632 11.872 2.4518 12.0446C2.57085 12.3423 2.74347 12.6042 2.96966 12.8304C3.19585 13.0566 3.45775 13.2292 3.75537 13.3482C3.92799 13.4137 4.14079 13.4688 4.39376 13.5134C4.64674 13.558 4.95329 13.5878 5.31341 13.6027C5.67353 13.6176 5.96073 13.6265 6.17501 13.6295C6.3893 13.6324 6.70329 13.6324 7.11698 13.6295C7.53067 13.6265 7.75835 13.625 7.80001 13.625C7.84168 13.625 8.06936 13.6265 8.48305 13.6295C8.89674 13.6324 9.21073 13.6324 9.42501 13.6295C9.6393 13.6265 9.9265 13.6176 10.2866 13.6027C10.6467 13.5878 10.9533 13.558 11.2063 13.5134C11.4592 13.4688 11.672 13.4137 11.8447 13.3482C12.1423 13.2292 12.4042 13.0566 12.6304 12.8304C12.8566 12.6042 13.0292 12.3423 13.1482 12.0446C13.2137 11.872 13.2688 11.6592 13.3134 11.4063C13.3581 11.1533 13.3878 10.8467 13.4027 10.4866C13.4176 10.1265 13.4265 9.83929 13.4295 9.625C13.4325 9.41072 13.4325 9.09673 13.4295 8.68304C13.4265 8.26935 13.425 8.04167 13.425 8C13.425 7.95834 13.4265 7.73066 13.4295 7.31697C13.4325 6.90328 13.4325 6.58929 13.4295 6.375C13.4265 6.16072 13.4176 5.87352 13.4027 5.5134C13.3878 5.15328 13.3581 4.84673 13.3134 4.59375C13.2688 4.34078 13.2137 4.12798 13.1482 3.95536C13.0292 3.65774 12.8566 3.39584 12.6304 3.16965C12.4042 2.94346 12.1423 2.77084 11.8447 2.65179C11.672 2.58631 11.4592 2.53125 11.2063 2.48661C10.9533 2.44197 10.6467 2.41221 10.2866 2.39733C9.9265 2.38244 9.6393 2.37352 9.42501 2.37054C9.21073 2.36756 8.89674 2.36756 8.48305 2.37054ZM14.6125 5.16965C14.6423 5.69346 14.6572 6.63691 14.6572 8C14.6572 9.3631 14.6423 10.3066 14.6125 10.8304C14.553 12.0685 14.1839 13.0268 13.5054 13.7054C12.8268 14.3839 11.8685 14.753 10.6304 14.8125C10.1066 14.8423 9.16311 14.8571 7.80001 14.8571C6.43692 14.8571 5.49347 14.8423 4.96966 14.8125C3.73156 14.753 2.77323 14.3839 2.09466 13.7054C1.41609 13.0268 1.04704 12.0685 0.987514 10.8304C0.957752 10.3066 0.942871 9.3631 0.942871 8C0.942871 6.63691 0.957752 5.69346 0.987514 5.16965C1.04704 3.93155 1.41609 2.97322 2.09466 2.29465C2.77323 1.61608 3.73156 1.24703 4.96966 1.1875C5.49347 1.15774 6.43692 1.14286 7.80001 1.14286C9.16311 1.14286 10.1066 1.15774 10.6304 1.1875C11.8685 1.24703 12.8268 1.61608 13.5054 2.29465C14.1839 2.97322 14.553 3.93155 14.6125 5.16965Z" fill="white"/>
</g>
<defs>
<clipPath id="clip0_2_30">
<rect width="13.72" height="16" fill="white" transform="matrix(1 0 0 -1 0.940063 16)"/>
</clipPath>
</defs>
</svg>
