<svg width="16" height="16" viewBox="0 0 16 16" fill="none" xmlns="http://www.w3.org/2000/svg">
<g id="Icon" clip-path="url(#clip0_2_27)">
<path id="Vector" d="M14.433 3.64285C14.0342 4.22618 13.552 4.72321 12.9866 5.13392C12.9925 5.21725 12.9955 5.34225 12.9955 5.50892C12.9955 6.28273 12.8824 7.05505 12.6562 7.82589C12.43 8.59672 12.0863 9.3363 11.625 10.0446C11.1637 10.753 10.6145 11.3795 9.97764 11.9241C9.34074 12.4687 8.57288 12.9033 7.67407 13.2277C6.77526 13.5521 5.81395 13.7143 4.79014 13.7143C3.17705 13.7143 1.70086 13.2827 0.361572 12.4196C0.569906 12.4434 0.802048 12.4554 1.058 12.4554C2.39729 12.4554 3.59074 12.0446 4.63836 11.2232C4.01336 11.2113 3.45383 11.0193 2.95979 10.6473C2.46574 10.2753 2.12645 9.80059 1.94193 9.22321C2.13836 9.25297 2.31991 9.26785 2.48657 9.26785C2.74252 9.26785 2.9955 9.23511 3.2455 9.16964C2.57883 9.03273 2.02675 8.70089 1.58925 8.1741C1.15175 7.64731 0.933001 7.03571 0.933001 6.33928V6.30356C1.33776 6.52976 1.77229 6.65178 2.23657 6.66964C1.84372 6.40773 1.53122 6.06547 1.29907 5.64285C1.06693 5.22023 0.950858 4.7619 0.950858 4.26785C0.950858 3.74404 1.08181 3.25892 1.34372 2.81249C2.06395 3.6994 2.94044 4.40922 3.97318 4.94196C5.00592 5.4747 6.11157 5.77083 7.29014 5.83035C7.24252 5.60416 7.21872 5.38392 7.21872 5.16964C7.21872 4.37202 7.49997 3.69196 8.06247 3.12946C8.62497 2.56696 9.30503 2.28571 10.1026 2.28571C10.936 2.28571 11.6384 2.58928 12.2098 3.19642C12.8586 3.07142 13.4687 2.83928 14.0401 2.49999C13.8199 3.18452 13.3973 3.71428 12.7723 4.08928C13.3259 4.02975 13.8794 3.88095 14.433 3.64285Z" fill="white"/>
</g>
<defs>
<clipPath id="clip0_2_27">
<rect width="14.86" height="16" fill="white" transform="matrix(1 0 0 -1 0.360107 16)"/>
</clipPath>
</defs>
</svg>
